{"title":"The.Simpsons.1-25.Seasons.1989-2014.Xvid.ENG.RUS.(2x2).HDRip","uid":11721105,"size":154511713512,"categoryP":"video","categoryS":"hd___tv_shows","magnet":"?xt=urn:btih:4e7fef036c0d7e41c072efa09d9d219359ce25ed&amp;dn=The.Simpsons.1-25.Seasons.1989-2014.Xvid.ENG.RUS.%282x2%29.HDRip&amp;tr=udp%3A%2F%2Ftracker.openbittorrent.com%3A80&amp;tr=udp%3A%2F%2Fopen.demonii.com%3A1337&amp;tr=udp%3A%2F%2Ftracker.coppersurfer.tk%3A6969&amp;tr=udp%3A%2F%2Fexodus.desync.com%3A6969","seeders":0,"leechers":1,"uploader":"niif111","files":552,"time":1424825447,"description":"Format                                   : AVI\nFormat/Info                              : Audio Video Interleave\nFile size                                : 277 MiB\nDuration                                 : 22mn 0s\nOverall bit rate                         : 1 758 Kbps\nWriting application                      : XviD4PSP 7.0 / 55.33.100\n\nVideo\nID                                       : 0\nFormat                                   : MPEG-4 Visual\nFormat profile                           : Advanced Simple@L5\nFormat settings, BVOP                    : 1\nFormat settings, QPel                    : No\nFormat settings, GMC                     : No warppoints\nFormat settings, Matrix                  : Default (H.263)\nCodec ID                                 : XVID\nCodec ID/Hint                            : XviD\nDuration                                 : 22mn 0s\nBit rate                                 : 1 358 Kbps\nWidth                                    : 720 pixels\nHeight                                   : 544 pixels\nDisplay aspect ratio                     : 4:3\nFrame rate                               : 23.976 fps\nColor space                              : YUV\nChroma subsampling                       : 4:2:0\nBit depth                                : 8 bits\nScan type                                : Progressive\nCompression mode                         : Lossy\nBits/(Pixel*Frame)                       : 0.145\nStream size                              : 214 MiB (77%)\nWriting library                          : XviD 64\n\nAudio #1\nID                                       : 1\nFormat                                   : AC-3\nFormat/Info                              : Audio Coding 3\nMode extension                           : CM (complete main)\nFormat settings, Endianness              : Big\nCodec ID                                 : 2000\nDuration                                 : 22mn 0s\nBit rate mode                            : Constant\nBit rate                                 : 192 Kbps\nChannel(s)                               : 2 channels\nChannel positions                        : Front: L R\nSampling rate                            : 48.0 KHz\nBit depth                                : 16 bits\nCompression mode                         : Lossy\nStream size                              : 30.2 MiB (11%)\nAlignment                                : Aligned on interleaves\nInterleave, duration                     : 32 ms (0.77 video frame)\nTitle                                    : 2X2\n\nAudio #2\nID                                       : 2\nFormat                                   : AC-3\nFormat/Info                              : Audio Coding 3\nMode extension                           : CM (complete main)\nFormat settings, Endianness              : Big\nCodec ID                                 : 2000\nDuration                                 : 22mn 0s\nBit rate mode                            : Constant\nBit rate                                 : 192 Kbps\nChannel(s)                               : 6 channels\nChannel positions                        : Front: L C R, Side: L R, LFE\nSampling rate                            : 48.0 KHz\nBit depth                                : 16 bits\nCompression mode                         : Lossy\nStream size                              : 30.2 MiB (11%)\nAlignment                                : Aligned on interleaves\nInterleave, duration                     : 32 ms (0.77 video frame)\nTitle                                    : Original","torrent":{"xt":"urn:btih:4e7fef036c0d7e41c072efa09d9d219359ce25ed","amp;dn":"The.Simpsons.1-25.Seasons.1989-2014.Xvid.ENG.RUS.%282x2%29.HDRip","amp;tr":["udp%3A%2F%2Ftracker.openbittorrent.com%3A80","udp%3A%2F%2Fopen.demonii.com%3A1337","udp%3A%2F%2Ftracker.coppersurfer.tk%3A6969","udp%3A%2F%2Fexodus.desync.com%3A6969"],"infoHash":"4e7fef036c0d7e41c072efa09d9d219359ce25ed","infoHashBuffer":{"type":"Buffer","data":[78,127,239,3,108,13,126,65,192,114,239,160,157,157,33,147,89,206,37,237]},"announce":[],"urlList":[]}}